<svg width="20" height="19" viewBox="0 0 20 19" fill="none" xmlns="http://www.w3.org/2000/svg">
<path fill-rule="evenodd" clip-rule="evenodd" d="M9.00999 0.628997C9.11086 0.455893 9.25536 0.312265 9.42907 0.21244C9.60278 0.112614 9.79963 0.0600815 9.99999 0.0600815C10.2003 0.0600815 10.3972 0.112614 10.5709 0.21244C10.7446 0.312265 10.8891 0.455893 10.99 0.628997L13.5521 5.02716L18.5277 6.10516C18.7235 6.14769 18.9046 6.24078 19.0531 6.37515C19.2017 6.50952 19.3124 6.68047 19.3742 6.87097C19.4361 7.06146 19.4469 7.26485 19.4057 7.46084C19.3644 7.65683 19.2725 7.83859 19.1392 7.988L15.7475 11.7839L16.2608 16.8485C16.2811 17.0479 16.2487 17.2492 16.1668 17.4322C16.0849 17.6151 15.9565 17.7734 15.7944 17.8913C15.6322 18.0091 15.4419 18.0823 15.2426 18.1036C15.0433 18.1249 14.8419 18.0936 14.6585 18.0127L9.99999 15.9593L5.34149 18.0127C5.15808 18.0936 4.95666 18.1249 4.75734 18.1036C4.55803 18.0823 4.36779 18.0091 4.20562 17.8913C4.04345 17.7734 3.91503 17.6151 3.83317 17.4322C3.75132 17.2492 3.7189 17.0479 3.73915 16.8485L4.25249 11.7839L0.86082 7.98891C0.727195 7.83952 0.635096 7.65769 0.593716 7.46157C0.552336 7.26546 0.563123 7.06192 0.625001 6.87127C0.686879 6.68063 0.797683 6.50955 0.94635 6.37512C1.09502 6.24069 1.27635 6.14761 1.47224 6.10516L6.4479 5.02716L9.00999 0.628997ZM9.99999 2.57141L7.87974 6.21241C7.79957 6.34984 7.69165 6.46907 7.56287 6.5625C7.43409 6.65593 7.28726 6.72151 7.13174 6.75508L3.01407 7.647L5.8209 10.7884C6.0354 11.0286 6.13899 11.3476 6.1069 11.6675L5.68249 15.8594L9.53799 14.1599C9.68356 14.0958 9.8409 14.0626 9.99999 14.0626C10.1591 14.0626 10.3164 14.0958 10.462 14.1599L14.3175 15.8594L13.8931 11.6675C13.8769 11.5092 13.894 11.3493 13.9431 11.1979C13.9921 11.0466 14.0722 10.9071 14.1782 10.7884L16.9859 7.647L12.8682 6.75508C12.7127 6.72151 12.5659 6.65593 12.4371 6.5625C12.3083 6.46907 12.2004 6.34984 12.1202 6.21241L9.99999 2.57141Z" fill="black"/>
</svg>
