<svg width="17" height="17" viewBox="0 0 17 17" fill="none" xmlns="http://www.w3.org/2000/svg">
<path d="M11.5 1.75C11.5 1.55109 11.421 1.36032 11.2803 1.21967C11.1397 1.07902 10.9489 1 10.75 1H6.25C6.05109 1 5.86032 1.07902 5.71967 1.21967C5.57902 1.36032 5.5 1.55109 5.5 1.75V5.5H1.75C1.55109 5.5 1.36032 5.57902 1.21967 5.71967C1.07902 5.86032 1 6.05109 1 6.25V10.75C1 10.9489 1.07902 11.1397 1.21967 11.2803C1.36032 11.421 1.55109 11.5 1.75 11.5H5.5V15.25C5.5 15.4489 5.57902 15.6397 5.71967 15.7803C5.86032 15.921 6.05109 16 6.25 16H10.75C10.9489 16 11.1397 15.921 11.2803 15.7803C11.421 15.6397 11.5 15.4489 11.5 15.25V11.5H15.25C15.4489 11.5 15.6397 11.421 15.7803 11.2803C15.921 11.1397 16 10.9489 16 10.75V6.25C16 6.05109 15.921 5.86032 15.7803 5.71967C15.6397 5.57902 15.4489 5.5 15.25 5.5H11.5V1.75Z" stroke="black" stroke-width="2" stroke-linecap="round" stroke-linejoin="round"/>
</svg>
