<svg width="24" height="24" viewBox="0 0 24 24" fill="none" xmlns="http://www.w3.org/2000/svg">
<path fill-rule="evenodd" clip-rule="evenodd" d="M4.172 4.172C3 5.343 3 7.229 3 11V13C3 16.771 3 18.657 4.172 19.828C5.343 21 7.229 21 11 21H13C16.771 21 18.657 21 19.828 19.828C21 18.657 21 16.771 21 13V11C21 7.229 21 5.343 19.828 4.172C18.657 3 16.771 3 13 3H11C7.229 3 5.343 3 4.172 4.172ZM12 16C13.0609 16 14.0783 15.5786 14.8284 14.8284C15.5786 14.0783 16 13.0609 16 12C16 10.9391 15.5786 9.92172 14.8284 9.17157C14.0783 8.42143 13.0609 8 12 8C10.9391 8 9.92172 8.42143 9.17157 9.17157C8.42143 9.92172 8 10.9391 8 12C8 13.0609 8.42143 14.0783 9.17157 14.8284C9.92172 15.5786 10.9391 16 12 16Z" fill="#F8F8F8" fill-opacity="0.25"/>
<path d="M3 11C3 7.229 3 5.343 4.172 4.172C5.343 3 7.229 3 11 3H13C16.771 3 18.657 3 19.828 4.172C21 5.343 21 7.229 21 11V13C21 16.771 21 18.657 19.828 19.828C18.657 21 16.771 21 13 21H11C7.229 21 5.343 21 4.172 19.828C3 18.657 3 16.771 3 13V11Z" stroke="#F8F8F8" stroke-width="1.2"/>
<path d="M16.5 9C17.3284 9 18 8.32843 18 7.5C18 6.67157 17.3284 6 16.5 6C15.6716 6 15 6.67157 15 7.5C15 8.32843 15.6716 9 16.5 9Z" fill="#F8F8F8"/>
<path d="M12 15.4C13.8777 15.4 15.4 13.8778 15.4 12C15.4 10.1222 13.8777 8.60001 12 8.60001C10.1222 8.60001 8.59998 10.1222 8.59998 12C8.59998 13.8778 10.1222 15.4 12 15.4Z" stroke="#F8F8F8" stroke-width="1.2"/>
</svg>
