<svg width="20" height="20" viewBox="0 0 20 20" fill="none" xmlns="http://www.w3.org/2000/svg">
<path d="M4.5 4.21053C5.47 4.21053 6.37 4.73684 7.11 5.66316C7.66 5.04211 8.31 4.58947 9 4.36842V2.10526C9 1.54691 9.21071 1.01143 9.58579 0.616617C9.96086 0.221804 10.4696 0 11 0H13V2.10526H11V4.36842C11.69 4.58947 12.34 5.04211 12.89 5.66316C13.63 4.73684 14.53 4.21053 15.5 4.21053C18 4.21053 20 7.74737 20 12.1053C20 16.4632 18 20 15.5 20C14.53 20 13.63 19.4737 12.89 18.5474C12.08 19.4737 11.08 20 10 20C8.92 20 7.92 19.4737 7.11 18.5474C6.37 19.4737 5.47 20 4.5 20C2 20 0 16.4632 0 12.1053C0 7.74737 2 4.21053 4.5 4.21053Z" fill="#FBFBFB"/>
</svg>
