<svg width="20" height="19" viewBox="0 0 20 19" fill="none" xmlns="http://www.w3.org/2000/svg">
<path fill-rule="evenodd" clip-rule="evenodd" d="M13.894 1.553L15.618 5H18C18.5304 5 19.0391 5.21071 19.4142 5.58579C19.7893 5.96086 20 6.46957 20 7V8C20.0001 8.38119 19.8912 8.75446 19.6862 9.07584C19.4812 9.39722 19.1887 9.65333 18.843 9.814L17.324 16.651C17.1759 17.3172 16.8051 17.913 16.2728 18.34C15.7405 18.7671 15.0785 18.9999 14.396 19H5.604C4.92141 18.9998 4.25929 18.7669 3.72695 18.3396C3.19461 17.9124 2.82389 17.3164 2.676 16.65L1.156 9.814C0.810515 9.65318 0.518165 9.39701 0.313367 9.07564C0.108568 8.75427 -0.000153843 8.38108 1.63387e-07 8V7C1.63387e-07 6.46957 0.210714 5.96086 0.585787 5.58579C0.960859 5.21071 1.46957 5 2 5H4.382L6.106 1.553C6.22934 1.32427 6.43688 1.15254 6.68465 1.07418C6.93242 0.995826 7.20096 1.017 7.43339 1.13321C7.66582 1.24943 7.84389 1.45156 7.92986 1.69679C8.01584 1.94202 8.00298 2.21109 7.894 2.447L6.618 5H13.382L12.106 2.447C12.0424 2.32912 12.0032 2.19968 11.9906 2.06635C11.978 1.93302 11.9923 1.79852 12.0327 1.67083C12.0731 1.54314 12.1387 1.42486 12.2257 1.32301C12.3126 1.22117 12.4192 1.13782 12.539 1.07793C12.6588 1.01804 12.7893 0.982818 12.923 0.974357C13.0567 0.965895 13.1906 0.984367 13.317 1.02868C13.4434 1.07298 13.5596 1.14223 13.6587 1.23229C13.7578 1.32236 13.8378 1.43142 13.894 1.553ZM16.754 10H3.246L4.627 16.217C4.67636 16.4391 4.79997 16.6377 4.97741 16.78C5.15484 16.9224 5.37552 17 5.603 17H14.395C14.6225 17 14.8432 16.9224 15.0206 16.78C15.198 16.6377 15.3216 16.4391 15.371 16.217L16.754 10ZM18 7H2V8H18V7Z" fill="black"/>
</svg>
